<svg width="33" height="33" viewBox="0 0 33 33" fill="none" xmlns="http://www.w3.org/2000/svg">
    <mask id="mask0_6_125" style="mask-type:alpha" maskUnits="userSpaceOnUse" x="0" y="0" width="33" height="33">
        <rect x="0.5" y="0.5" width="32" height="32" fill="#D9D9D9"/>
    </mask>
    <g mask="url(#mask0_6_125)">
        <path d="M13.1667 22.5L22.5 16.5L13.1667 10.5V22.5ZM16.5 29.8333C14.6556 29.8333 12.9222 29.4833 11.3 28.7833C9.6778 28.0833 8.26669 27.1333 7.06669 25.9333C5.86669 24.7333 4.91669 23.3222 4.21669 21.7C3.51669 20.0778 3.16669 18.3444 3.16669 16.5C3.16669 14.6556 3.51669 12.9222 4.21669 11.3C4.91669 9.67778 5.86669 8.26667 7.06669 7.06667C8.26669 5.86667 9.6778 4.91667 11.3 4.21667C12.9222 3.51667 14.6556 3.16667 16.5 3.16667C18.3445 3.16667 20.0778 3.51667 21.7 4.21667C23.3222 4.91667 24.7334 5.86667 25.9334 7.06667C27.1334 8.26667 28.0834 9.67778 28.7834 11.3C29.4834 12.9222 29.8334 14.6556 29.8334 16.5C29.8334 18.3444 29.4834 20.0778 28.7834 21.7C28.0834 23.3222 27.1334 24.7333 25.9334 25.9333C24.7334 27.1333 23.3222 28.0833 21.7 28.7833C20.0778 29.4833 18.3445 29.8333 16.5 29.8333ZM16.5 27.1667C19.4778 27.1667 22 26.1333 24.0667 24.0667C26.1334 22 27.1667 19.4778 27.1667 16.5C27.1667 13.5222 26.1334 11 24.0667 8.93334C22 6.86667 19.4778 5.83334 16.5 5.83334C13.5222 5.83334 11 6.86667 8.93335 8.93334C6.86669 11 5.83335 13.5222 5.83335 16.5C5.83335 19.4778 6.86669 22 8.93335 24.0667C11 26.1333 13.5222 27.1667 16.5 27.1667Z" fill="#74CCE2"/>
    </g>
</svg>
