<svg width="66" height="67" viewBox="0 0 66 67" fill="none" xmlns="http://www.w3.org/2000/svg">
    <mask id="mask0_9_124" style="mask-type:alpha" maskUnits="userSpaceOnUse" x="0" y="0" width="66" height="67">
        <rect y="0.5" width="66" height="66" fill="#D9D9D9"/>
    </mask>
    <g mask="url(#mask0_9_124)">
        <path d="M30.2499 61V38.2437C29.4249 37.7396 28.7603 37.0864 28.2561 36.2843C27.752 35.4823 27.4999 34.5541 27.4999 33.5C27.4999 31.9875 28.0384 30.6927 29.1155 29.6156C30.1926 28.5385 31.4874 28 32.9999 28C34.5124 28 35.8072 28.5385 36.8843 29.6156C37.9613 30.6927 38.4999 31.9875 38.4999 33.5C38.4999 34.5541 38.2478 35.4937 37.7436 36.3187C37.2395 37.1437 36.5749 37.7854 35.7499 38.2437V61H30.2499ZM14.0249 53.4375C11.4124 50.9166 9.33842 47.9489 7.803 44.5343C6.26759 41.1198 5.49988 37.4416 5.49988 33.5C5.49988 29.6958 6.22175 26.1208 7.6655 22.775C9.10925 19.4291 11.0686 16.5187 13.5436 14.0437C16.0186 11.5687 18.929 9.60934 22.2749 8.16559C25.6207 6.72184 29.1957 5.99997 32.9999 5.99997C36.804 5.99997 40.3791 6.72184 43.7249 8.16559C47.0707 9.60934 49.9811 11.5687 52.4561 14.0437C54.9311 16.5187 56.8905 19.4291 58.3343 22.775C59.778 26.1208 60.4999 29.6958 60.4999 33.5C60.4999 37.4416 59.7322 41.1312 58.1968 44.5687C56.6613 48.0062 54.5874 50.9625 51.9749 53.4375L48.1249 49.5875C50.2332 47.5708 51.9061 45.176 53.1436 42.4031C54.3811 39.6302 54.9999 36.6625 54.9999 33.5C54.9999 27.3583 52.8686 22.1562 48.6061 17.8937C44.3436 13.6312 39.1415 11.5 32.9999 11.5C26.8582 11.5 21.6561 13.6312 17.3936 17.8937C13.1311 22.1562 10.9999 27.3583 10.9999 33.5C10.9999 36.6625 11.6186 39.6187 12.8561 42.3687C14.0936 45.1187 15.7895 47.5021 17.9436 49.5187L14.0249 53.4375ZM21.7936 45.6687C20.1895 44.1562 18.9061 42.3573 17.9436 40.2719C16.9811 38.1864 16.4999 35.9291 16.4999 33.5C16.4999 28.9166 18.104 25.0208 21.3124 21.8125C24.5207 18.6041 28.4165 17 32.9999 17C37.5832 17 41.479 18.6041 44.6874 21.8125C47.8957 25.0208 49.4999 28.9166 49.4999 33.5C49.4999 35.9291 49.0186 38.1979 48.0561 40.3062C47.0936 42.4146 45.8103 44.2021 44.2061 45.6687L40.2874 41.75C41.4332 40.6958 42.3384 39.4583 43.003 38.0375C43.6676 36.6166 43.9999 35.1041 43.9999 33.5C43.9999 30.475 42.9228 27.8854 40.7686 25.7312C38.6145 23.5771 36.0249 22.5 32.9999 22.5C29.9749 22.5 27.3853 23.5771 25.2311 25.7312C23.077 27.8854 21.9999 30.475 21.9999 33.5C21.9999 35.15 22.3322 36.6739 22.9968 38.0718C23.6613 39.4698 24.5665 40.6958 25.7124 41.75L21.7936 45.6687Z" fill="#ABABAB"/>
    </g>
</svg>
