<svg width="35" height="34" viewBox="0 0 35 34" fill="none" xmlns="http://www.w3.org/2000/svg">
    <path d="M17.5 21.8636L25.5 16.7727L17.5 11.6818V21.8636ZM4.40909 32.0455C3.60909 32.0455 2.92424 31.7606 2.35455 31.1909C1.78485 30.6212 1.5 29.9364 1.5 29.1364V13.1364H4.40909V29.1364H29.1364V32.0455H4.40909ZM10.2273 26.2273C9.42727 26.2273 8.74242 25.9424 8.17273 25.3727C7.60303 24.803 7.31818 24.1182 7.31818 23.3182V7.31818H14.5909V4.40909C14.5909 3.60909 14.8758 2.92424 15.4455 2.35455C16.0152 1.78485 16.7 1.5 17.5 1.5H23.3182C24.1182 1.5 24.803 1.78485 25.3727 2.35455C25.9424 2.92424 26.2273 3.60909 26.2273 4.40909V7.31818H33.5V23.3182C33.5 24.1182 33.2152 24.803 32.6455 25.3727C32.0758 25.9424 31.3909 26.2273 30.5909 26.2273H10.2273ZM10.2273 23.3182H30.5909V10.2273H10.2273V23.3182ZM17.5 7.31818H23.3182V4.40909H17.5V7.31818Z" fill="#74CCE2"/>
</svg>
