<svg width="25" height="24" viewBox="0 0 25 24" fill="none" xmlns="http://www.w3.org/2000/svg">
    <path d="M12.5 14.6667C11.7667 14.6667 11.1389 14.4056 10.6167 13.8833C10.0944 13.3611 9.83333 12.7333 9.83333 12C9.83333 11.2667 10.0944 10.6389 10.6167 10.1167C11.1389 9.59445 11.7667 9.33333 12.5 9.33333C13.2333 9.33333 13.8611 9.59445 14.3833 10.1167C14.9056 10.6389 15.1667 11.2667 15.1667 12C15.1667 12.7333 14.9056 13.3611 14.3833 13.8833C13.8611 14.4056 13.2333 14.6667 12.5 14.6667ZM12.5 24C9.41111 24 6.73333 22.9833 4.46667 20.95C2.2 18.9167 0.9 16.3778 0.566667 13.3333H3.3C3.61111 15.6444 4.63889 17.5556 6.38333 19.0667C8.12778 20.5778 10.1667 21.3333 12.5 21.3333C15.1 21.3333 17.3056 20.4278 19.1167 18.6167C20.9278 16.8056 21.8333 14.6 21.8333 12C21.8333 9.4 20.9278 7.19444 19.1167 5.38333C17.3056 3.57222 15.1 2.66667 12.5 2.66667C10.9667 2.66667 9.53333 3.02222 8.2 3.73333C6.86667 4.44444 5.74444 5.42222 4.83333 6.66667H8.5V9.33333H0.5V1.33333H3.16667V4.46667C4.3 3.04444 5.68333 1.94444 7.31667 1.16667C8.95 0.388889 10.6778 0 12.5 0C14.1667 0 15.7278 0.316667 17.1833 0.95C18.6389 1.58333 19.9056 2.43889 20.9833 3.51667C22.0611 4.59444 22.9167 5.86111 23.55 7.31667C24.1833 8.77222 24.5 10.3333 24.5 12C24.5 13.6667 24.1833 15.2278 23.55 16.6833C22.9167 18.1389 22.0611 19.4056 20.9833 20.4833C19.9056 21.5611 18.6389 22.4167 17.1833 23.05C15.7278 23.6833 14.1667 24 12.5 24Z" fill="#74CCE2"/>
</svg>
