<svg width="66" height="66" viewBox="0 0 66 66" fill="none" xmlns="http://www.w3.org/2000/svg">
    <mask id="mask0_9_128" style="mask-type:alpha" maskUnits="userSpaceOnUse" x="0" y="0" width="66" height="66">
        <rect width="66" height="66" fill="#D9D9D9"/>
    </mask>
    <g mask="url(#mask0_9_128)">
        <path d="M33 60.5C29.5625 60.5 26.3427 59.8469 23.3406 58.5406C20.3385 57.2344 17.726 55.4698 15.5031 53.2469C13.2802 51.024 11.5156 48.4115 10.2094 45.4094C8.90313 42.4073 8.25 39.1875 8.25 35.75C8.25 32.3125 8.90313 29.0927 10.2094 26.0906C11.5156 23.0885 13.2802 20.476 15.5031 18.2531C17.726 16.0302 20.3385 14.2656 23.3406 12.9594C26.3427 11.6531 29.5625 11 33 11H33.4125L29.15 6.7375L33 2.75L44 13.75L33 24.75L29.15 20.7625L33.4125 16.5H33C27.6375 16.5 23.0885 18.3677 19.3531 22.1031C15.6177 25.8385 13.75 30.3875 13.75 35.75C13.75 41.1125 15.6177 45.6615 19.3531 49.3969C23.0885 53.1323 27.6375 55 33 55C38.3625 55 42.9115 53.1323 46.6469 49.3969C50.3823 45.6615 52.25 41.1125 52.25 35.75H57.75C57.75 39.1875 57.0969 42.4073 55.7906 45.4094C54.4844 48.4115 52.7198 51.024 50.4969 53.2469C48.274 55.4698 45.6615 57.2344 42.6594 58.5406C39.6573 59.8469 36.4375 60.5 33 60.5Z" fill="#ABABAB"/>
    </g>
    <path d="M31.2484 42.65V44.5H23.2484V42.65H26.1784V34.22C26.1784 33.8867 26.1884 33.5433 26.2084 33.19L24.1284 34.93C24.0084 35.0233 23.8884 35.0833 23.7684 35.11C23.6551 35.13 23.5451 35.13 23.4384 35.11C23.3384 35.09 23.2484 35.0567 23.1684 35.01C23.0884 34.9567 23.0284 34.9 22.9884 34.84L22.2084 33.77L26.6184 30.02H28.6484V42.65H31.2484ZM43.6 37.27C43.6 38.53 43.4633 39.6267 43.19 40.56C42.9233 41.4867 42.55 42.2533 42.07 42.86C41.5967 43.4667 41.0333 43.92 40.38 44.22C39.7333 44.5133 39.0333 44.66 38.28 44.66C37.5267 44.66 36.8267 44.5133 36.18 44.22C35.54 43.92 34.9833 43.4667 34.51 42.86C34.0367 42.2533 33.6667 41.4867 33.4 40.56C33.1333 39.6267 33 38.53 33 37.27C33 36.0033 33.1333 34.9067 33.4 33.98C33.6667 33.0533 34.0367 32.2867 34.51 31.68C34.9833 31.0733 35.54 30.6233 36.18 30.33C36.8267 30.03 37.5267 29.88 38.28 29.88C39.0333 29.88 39.7333 30.03 40.38 30.33C41.0333 30.6233 41.5967 31.0733 42.07 31.68C42.55 32.2867 42.9233 33.0533 43.19 33.98C43.4633 34.9067 43.6 36.0033 43.6 37.27ZM41.05 37.27C41.05 36.2233 40.9733 35.3567 40.82 34.67C40.6667 33.9833 40.46 33.4367 40.2 33.03C39.9467 32.6233 39.6533 32.34 39.32 32.18C38.9867 32.0133 38.64 31.93 38.28 31.93C37.9267 31.93 37.5833 32.0133 37.25 32.18C36.9233 32.34 36.6333 32.6233 36.38 33.03C36.1267 33.4367 35.9233 33.9833 35.77 34.67C35.6233 35.3567 35.55 36.2233 35.55 37.27C35.55 38.3167 35.6233 39.1833 35.77 39.87C35.9233 40.5567 36.1267 41.1033 36.38 41.51C36.6333 41.9167 36.9233 42.2033 37.25 42.37C37.5833 42.53 37.9267 42.61 38.28 42.61C38.64 42.61 38.9867 42.53 39.32 42.37C39.6533 42.2033 39.9467 41.9167 40.2 41.51C40.46 41.1033 40.6667 40.5567 40.82 39.87C40.9733 39.1833 41.05 38.3167 41.05 37.27Z" fill="black"/>
</svg>
